<?xml version="1.0" encoding="utf-8"?>
<!-- Generator: Adobe Illustrator 22.0.0, SVG Export Plug-In . SVG Version: 6.00 Build 0)  -->
<svg version="1.1" id="Capa_1" xmlns="http://www.w3.org/2000/svg" xmlns:xlink="http://www.w3.org/1999/xlink" x="0px" y="0px"
	 viewBox="0 0 346.8 72.7" style="enable-background:new 0 0 346.8 72.7;" xml:space="preserve">
<style type="text/css">
	.st0{fill:#000F8F;}
	.st1{fill:#008833;}
	.st2{fill:#FFA600;}
	.st3{fill:#F0047F;}
</style>
<path class="st0" d="M121.6,3C117.6-1,111-1,106.9,3L55,55c-4.1,4.1-4.1,10.7,0,14.7c2,2,4.7,3,7.4,3c2.7,0,5.3-1,7.4-3l51.9-51.9
	C125.7,13.7,125.7,7.1,121.6,3"/>
<path class="st1" d="M69.7,3C65.6-1,59-1,55,3L3,55C-1,59-1,65.6,3,69.7c2,2,4.7,3,7.4,3s5.3-1,7.4-3l51.9-51.9
	C73.8,13.7,73.8,7.1,69.7,3"/>
<path class="st2" d="M121.6,55L69.7,3C65.6-1,59-1,55,3c-4.1,4.1-4.1,10.7,0,14.7l51.9,51.9c2,2,4.7,3,7.4,3c2.7,0,5.3-1,7.4-3
	C125.7,65.6,125.7,59,121.6,55"/>
<path class="st0" d="M69.7,55L17.8,3C13.7-1,7.1-1,3,3C-1,7.1-1,13.7,3,17.8L55,69.7c2,2,4.7,3,7.4,3c2.7,0,5.3-1,7.4-3
	C73.8,65.6,73.8,59,69.7,55"/>
<path class="st3" d="M173.5,3C169.5-1,162.9-1,158.8,3L106.9,55c-4.1,4.1-4.1,10.7,0,14.7c2,2,4.7,3,7.4,3c2.7,0,5.3-1,7.4-3
	l51.9-51.9C177.6,13.7,177.6,7.1,173.5,3"/>
<path class="st0" d="M173.5,55L121.6,3C117.6-1,110.9-1,106.9,3c-4.1,4.1-4.1,10.7,0,14.7l51.9,51.9c2,2,4.7,3,7.4,3
	c2.7,0,5.3-1,7.4-3C177.6,65.6,177.6,59,173.5,55"/>
<polygon class="st0" points="222.9,1.7 222.9,7.9 214.1,7.9 214.1,33.8 207,33.8 207,7.9 198.2,7.9 198.2,1.7 "/>
<path class="st0" d="M237.4,10.2v5.4h-7v18.2h-6.7V15.9c0-1.5,0.2-2.5,0.9-3.7c0.7-1.2,2.3-1.9,4.8-1.9H237.4z"/>
<path class="st0" d="M245.5,19.2h9.2v-0.4c0-2.3-1.9-3.8-4.5-3.8c-2.8,0-4.6,1.6-4.6,3.9V19.2z M241.7,13c2.1-2.2,4.9-3.3,8.5-3.3
	c3.4,0,6,1,8.1,3c2.1,1.9,3.1,4.6,3.1,8c0,0.8,0,1.8-0.2,2.9h-15.7v1.3c0,2.6,1.9,4.3,4.8,4.3c2.3,0,4.1-1.1,4.6-2.7h6.7
	c-0.5,2.4-1.7,4.3-3.7,5.7c-2,1.4-4.5,2.1-7.5,2.1c-3.7,0-6.5-1.1-8.6-3.3c-2.1-2.2-3.1-5.2-3.1-8.9C238.6,18.2,239.7,15.2,241.7,13
	"/>
<path class="st0" d="M270.8,26.4c0,2,1.5,3.1,3.9,3.1c2.2,0,3.4-0.9,3.4-2.4c-0.2-1.7-1.3-2-2.5-2.2l-4.2-0.7c-4.6-0.8-7-3.1-7-6.8
	c0-4.8,3.8-7.6,9.8-7.6c6.1,0,9.8,2.9,10,7.5h-6.7c0-1.8-1.1-2.7-3.3-2.7c-1.9,0-3,0.8-3,2.2c0,0.6,0.2,1,0.6,1.4
	c0.8,0.7,1.3,0.7,2.5,0.9l4.1,0.7c4.4,0.7,6.6,3,6.6,6.8c0,4.9-4,7.8-10.3,7.8c-6.6,0-10.5-3.1-10.5-7.8H270.8z"/>
<path class="st0" d="M203.5,66.6c-2.7-3-4.1-7-4.1-12c0-5.2,1.4-9.2,4.1-12.1c2.8-3,6.6-4.4,11.5-4.4c4.1,0,7.5,1.1,10.2,3.2
	c2.7,2.2,4.1,5,4.5,8.6h-7.4c-0.7-3.4-3.3-5.6-7.5-5.6c-4.7,0-7.8,2.9-7.8,7.7v5.3c0,4.5,3,7.5,7.8,7.5c3.9,0,6.8-2.2,7.5-5.7h7.4
	c-0.4,3.7-2,6.5-4.7,8.7c-2.7,2.2-6.1,3.2-10.3,3.2C209.9,71,206.2,69.6,203.5,66.6"/>
<path class="st0" d="M247.6,47v5.4h-7v18.2h-6.7V52.7c0-1.5,0.2-2.5,0.9-3.7c0.7-1.2,2.3-1.9,4.8-1.9H247.6z"/>
<path class="st0" d="M298,61.9c-0.6,5.8-4.8,9.1-11.1,9.1c-7.2,0-11.6-4.6-11.6-12.2c0-7.8,4.5-12.3,11.8-12.3c6.2,0,10.3,3.5,11,9
	h-6.6c-0.4-2.3-2-3.5-4.6-3.5c-3,0-4.7,1.9-4.7,4.9v4c0,3,1.9,4.7,4.7,4.7c2.5,0,4.2-1.4,4.6-3.7H298z"/>
<path class="st0" d="M307.3,55.9h9.2v-0.4c0-2.3-1.9-3.8-4.5-3.8c-2.8,0-4.6,1.6-4.6,3.9V55.9z M303.6,49.8c2.1-2.2,4.9-3.3,8.5-3.3
	c3.4,0,6,1,8.1,3c2.1,1.9,3.1,4.6,3.1,8c0,0.8,0,1.8-0.2,2.9h-15.7v1.3c0,2.6,1.9,4.3,4.8,4.3c2.3,0,4.1-1.1,4.6-2.7h6.7
	c-0.5,2.4-1.7,4.3-3.7,5.7c-2,1.4-4.5,2.1-7.5,2.1c-3.7,0-6.5-1.1-8.6-3.3c-2.1-2.2-3.1-5.2-3.1-8.9C300.5,55,301.5,52,303.6,49.8"
	/>
<path class="st0" d="M332.6,63.2c0,2,1.5,3.1,3.9,3.1c2.2,0,3.4-0.9,3.4-2.4c-0.2-1.7-1.3-2-2.5-2.2l-4.2-0.7c-4.6-0.8-7-3.1-7-6.8
	c0-4.8,3.8-7.6,9.8-7.6c6.1,0,9.8,2.9,10,7.5h-6.7c0-1.8-1.1-2.7-3.3-2.7c-1.9,0-3,0.8-3,2.2c0,0.6,0.2,1,0.6,1.4
	c0.8,0.7,1.3,0.7,2.5,0.9l4.1,0.7c4.4,0.7,6.6,3,6.6,6.8c0,4.9-4,7.8-10.3,7.8c-6.6,0-10.5-3.1-10.5-7.8H332.6z"/>
<path class="st0" d="M265.3,47v13.7c0,3.2-1.3,4.8-4.1,4.9c-2.7,0-4.1-1.7-4.1-4.9V47h-6.7v14.8c0,5.8,3.1,9.3,10.8,9.3
	c7.7,0,10.8-3.5,10.8-9.3V47H265.3z"/>
</svg>
