<?xml version="1.0" encoding="utf-8"?>
<!-- Generator: Adobe Illustrator 16.0.0, SVG Export Plug-In . SVG Version: 6.00 Build 0)  -->
<!DOCTYPE svg PUBLIC "-//W3C//DTD SVG 1.1//EN" "http://www.w3.org/Graphics/SVG/1.1/DTD/svg11.dtd">
<svg version="1.1" id="Layer_1" xmlns="http://www.w3.org/2000/svg" xmlns:xlink="http://www.w3.org/1999/xlink" x="0px" y="0px"
	 width="135px" height="40.625px" viewBox="0 0 135 40.625" enable-background="new 0 0 135 40.625" xml:space="preserve">
<g>
	<path fill="#95D600" d="M112.628,39.511c-3.119,0-5.569-0.41-7.352-1.233c-1.782-0.822-3.077-2.244-3.882-4.268
		c-0.806-2.022-1.21-4.867-1.21-8.534c0-3.771,0.379-6.675,1.133-8.716c0.754-2.04,1.996-3.47,3.727-4.292
		c1.731-0.822,4.174-1.233,7.327-1.233c2.812,0,5.021,0.274,6.632,0.821c1.611,0.55,2.785,1.51,3.521,2.88
		c0.737,1.372,1.105,3.308,1.105,5.811c0,2.673-0.762,4.575-2.287,5.705c-1.525,1.132-3.744,1.698-6.658,1.698h-6.94
		c0.067,1.473,0.291,2.613,0.668,3.419c0.377,0.804,1.045,1.387,2.005,1.746c0.96,0.361,2.364,0.541,4.217,0.541h8.071v4.474
		c-1.816,0.376-3.462,0.668-4.936,0.873C116.296,39.408,114.582,39.511,112.628,39.511 M113.913,23.624
		c1.063,0,1.826-0.215,2.288-0.642c0.463-0.43,0.694-1.158,0.694-2.185c0-1.51-0.343-2.563-1.028-3.163
		c-0.685-0.6-1.851-0.9-3.496-0.9c-1.2,0-2.134,0.197-2.802,0.592c-0.669,0.394-1.157,1.088-1.466,2.082
		c-0.309,0.995-0.463,2.399-0.463,4.216H113.913z"/>
	<path fill="#95D600" d="M82.234,39.563c-3.324,0-5.801-1.08-7.429-3.239c-1.63-2.159-2.442-5.688-2.442-10.592
		c0-3.494,0.316-6.288,0.951-8.38c0.634-2.09,1.705-3.632,3.213-4.627c1.508-0.994,3.582-1.492,6.222-1.492
		c2.262,0,4.609,0.429,7.043,1.286V0.025h7.661v39.229h-6.428l-1.233-2.622c-0.96,0.823-2.124,1.517-3.495,2.083
		C84.925,39.28,83.571,39.563,82.234,39.563 M84.907,33.445c1.646,0,3.274-0.515,4.885-1.543V18.021
		c-0.891-0.343-1.688-0.609-2.391-0.798c-0.702-0.188-1.431-0.282-2.185-0.282c-1.337,0-2.374,0.231-3.111,0.694
		c-0.736,0.462-1.276,1.304-1.619,2.52s-0.514,2.956-0.514,5.219c0,2.158,0.163,3.813,0.487,4.961
		c0.327,1.148,0.84,1.954,1.543,2.416C82.706,33.214,83.674,33.445,84.907,33.445"/>
	<path fill="#95D600" d="M53.589,11.646h5.861l1.749,4.216c1.097-1.44,2.271-2.563,3.523-3.368c1.25-0.806,2.682-1.208,4.292-1.208
		c0.891,0,1.645,0.084,2.262,0.256l-1.862,7.816c-3.557-0.343-5.755,0.09-8.215,2.725v17.172h-7.609V11.646z"/>
	<path fill="#95D600" d="M39.751,39.511c-3.12,0-5.57-0.41-7.352-1.233c-1.783-0.822-3.077-2.244-3.883-4.268
		c-0.805-2.022-1.208-4.867-1.208-8.534c0-3.771,0.377-6.675,1.131-8.716c0.754-2.04,1.997-3.47,3.728-4.292
		c1.73-0.822,4.173-1.233,7.326-1.233c2.811,0,5.021,0.274,6.633,0.821c1.61,0.55,2.784,1.51,3.521,2.88
		c0.737,1.372,1.106,3.308,1.106,5.811c0,2.673-0.763,4.575-2.288,5.705c-1.525,1.132-3.744,1.698-6.658,1.698h-6.94
		c0.068,1.473,0.292,2.613,0.668,3.419c0.377,0.804,1.045,1.387,2.005,1.746c0.96,0.361,2.365,0.541,4.216,0.541h8.073v4.474
		c-1.817,0.376-3.463,0.668-4.936,0.873C43.417,39.408,41.704,39.511,39.751,39.511 M41.036,23.624c1.063,0,1.826-0.215,2.288-0.642
		c0.462-0.43,0.694-1.158,0.694-2.185c0-1.51-0.343-2.563-1.029-3.163c-0.685-0.6-1.851-0.9-3.496-0.9
		c-1.2,0-2.134,0.197-2.802,0.592c-0.668,0.394-1.157,1.088-1.466,2.082c-0.308,0.995-0.462,2.399-0.462,4.216H41.036z"/>
	<polygon fill="#95D600" points="0,11.646 7.866,11.646 13.83,32.211 19.948,11.646 27.712,11.646 18.046,39.254 9.254,39.254 	"/>
	<path fill="#95D600" d="M117.255,0h5.071v3.799v3.805h-7.605V2.535C114.721,1.135,115.855,0,117.255,0"/>
	<path fill="#95D600" d="M132.465,0h-5.069v3.799v3.805H135V2.535C135,1.135,133.864,0,132.465,0"/>
	<path fill="#95D600" d="M132.465,20.278h-5.069V16.48v-3.805H135v5.07C135,19.145,133.864,20.278,132.465,20.278"/>
</g>
</svg>
